<svg version="1.1" xmlns="http://www.w3.org/2000/svg" viewBox="0 0 768.5737691751965 332.4900609565433" width="2305.7213075255895" height="997.4701828696299" filter="invert(93%) hue-rotate(180deg)">
  <!-- svg-source:excalidraw -->
  
  <defs>
    <style class="style-fonts">
      @font-face {
        font-family: "Virgil";
        src: url("https://excalidraw.com/Virgil.woff2");
      }
      @font-face {
        font-family: "Cascadia";
        src: url("https://excalidraw.com/Cascadia.woff2");
      }
    </style>
    
  </defs>
  <rect x="0" y="0" width="768.5737691751965" height="332.4900609565433" fill="#ffffff"></rect><g stroke-linecap="round" transform="translate(10 9.999999999999986) rotate(0 168.2350567979472 156.24503047827167)"><path d="M110.59 9.32 C124.48 1.86, 145.1 0.58, 161.68 -0.08 C178.27 -0.75, 194.11 1.25, 210.1 5.33 C226.09 9.4, 243.51 16.21, 257.61 24.35 C271.71 32.48, 283.96 42.66, 294.72 54.13 C305.47 65.61, 315.55 79.13, 322.15 93.19 C328.74 107.25, 332.23 123.24, 334.29 138.5 C336.35 153.75, 337.16 169.89, 334.51 184.7 C331.86 199.51, 326.01 213.77, 318.41 227.33 C310.82 240.89, 300.78 254.96, 288.93 266.05 C277.08 277.14, 262.12 286.49, 247.31 293.87 C232.5 301.25, 216.32 307.21, 200.05 310.34 C183.77 313.46, 166.09 314.26, 149.65 312.61 C133.21 310.97, 116.34 306.71, 101.42 300.48 C86.51 294.25, 72.59 285.24, 60.18 275.24 C47.77 265.24, 36.01 253.56, 26.97 240.48 C17.93 227.4, 10.24 211.47, 5.92 196.76 C1.6 182.05, 0.49 167.5, 1.04 152.23 C1.59 136.95, 4.17 119.78, 9.22 105.13 C14.26 90.48, 21.62 76.55, 31.29 64.35 C40.96 52.14, 52.92 41.33, 67.24 31.88 C81.56 22.44, 107.83 11.36, 117.22 7.65 C126.61 3.94, 122.57 7.09, 123.57 9.61 M213.49 6.01 C228.97 7.75, 244.07 17.23, 257.73 25.61 C271.38 33.98, 284.47 44.58, 295.41 56.26 C306.35 67.94, 316.68 81.68, 323.38 95.67 C330.07 109.67, 333.87 125, 335.58 140.22 C337.29 155.43, 336.86 172.05, 333.63 186.96 C330.4 201.88, 324.08 216.36, 316.2 229.7 C308.31 243.03, 297.92 256.07, 286.31 266.99 C274.7 277.91, 261.41 287.96, 246.53 295.23 C231.65 302.5, 213.35 307.98, 197.03 310.61 C180.7 313.24, 164.83 313.14, 148.57 311 C132.3 308.87, 114.64 303.87, 99.45 297.8 C84.27 291.73, 69.74 284.76, 57.45 274.59 C45.16 264.42, 34.16 250.2, 25.7 236.76 C17.25 223.32, 10.93 208.84, 6.72 193.97 C2.51 179.11, -0.34 162.58, 0.44 147.58 C1.21 132.59, 5.62 118.43, 11.36 103.98 C17.09 89.53, 24.99 73.27, 34.85 60.9 C44.71 48.54, 57.21 38.75, 70.51 29.79 C83.82 20.83, 99.43 12.11, 114.69 7.12 C129.95 2.14, 145.62 0.06, 162.06 -0.14 C178.5 -0.33, 204.96 4.44, 213.31 5.97 C221.65 7.49, 213.13 6.29, 212.14 9" stroke="#1971c2" stroke-width="1" fill="none"></path></g><g transform="translate(154.90092392964993 22.85598767188145) rotate(0 22.66666603088379 22.5)"><text x="22.66666603088379" y="0" font-family="Virgil, Segoe UI Emoji" font-size="36px" fill="#1971c2" text-anchor="middle" style="white-space: pre;" direction="ltr" dominant-baseline="text-before-edge">UI</text></g><g transform="translate(140.51770450222335 90.68704114295173) rotate(0 36.89583206176758 17.5)"><text x="36.89583206176758" y="0" font-family="Virgil, Segoe UI Emoji" font-size="28px" fill="#1971c2" text-anchor="middle" style="white-space: pre;" direction="ltr" dominant-baseline="text-before-edge">Game</text></g><g transform="translate(147.4535135342748 152.14839313169438) rotate(0 29.46875 12.5)"><text x="29.46875" y="0" font-family="Virgil, Segoe UI Emoji" font-size="20px" fill="#1971c2" text-anchor="middle" style="white-space: pre;" direction="ltr" dominant-baseline="text-before-edge">Board</text></g><g stroke-linecap="round" transform="translate(54.21322205380352 87.18579443291114) rotate(0 123.272458099164 109.78367848952902)"><path d="M79.53 6.45 C91.35 0.66, 107.92 -0.16, 121.85 -0.21 C135.79 -0.27, 149.75 2.06, 163.14 6.12 C176.52 10.18, 191.19 16.11, 202.16 24.14 C213.13 32.18, 221.91 43.35, 228.96 54.34 C236.01 65.32, 241.95 77.97, 244.47 90.08 C246.98 102.2, 246.32 114.63, 244.07 127.01 C241.81 139.38, 237.76 153.44, 230.94 164.33 C224.13 175.22, 213.89 184.43, 203.18 192.33 C192.48 200.22, 179.91 207.27, 166.73 211.71 C153.55 216.15, 138.06 218.66, 124.1 218.94 C110.14 219.22, 96.2 217.5, 82.96 213.39 C69.72 209.28, 55.69 202.27, 44.65 194.3 C33.61 186.33, 23.91 176.23, 16.7 165.58 C9.49 154.93, 3.77 142.73, 1.41 130.42 C-0.95 118.11, 0.07 104.05, 2.56 91.73 C5.04 79.41, 9.68 67.44, 16.32 56.5 C22.95 45.57, 30.49 34.84, 42.36 26.13 C54.24 17.42, 78.44 7.86, 87.56 4.25 C96.68 0.65, 96.27 2.67, 97.08 4.48 M110.72 1.81 C124.26 -1.19, 141.07 -0.36, 154.49 2.29 C167.91 4.94, 179.99 10.51, 191.25 17.7 C202.51 24.9, 213.8 35.17, 222.04 45.44 C230.28 55.72, 236.43 67.29, 240.7 79.36 C244.97 91.43, 248.36 105.41, 247.64 117.85 C246.93 130.3, 242.18 142.51, 236.43 154.04 C230.68 165.56, 223.12 177.84, 213.15 187.01 C203.17 196.18, 189.24 203.58, 176.58 209.04 C163.91 214.5, 150.96 218.58, 137.16 219.76 C123.37 220.94, 107.4 219.36, 93.8 216.12 C80.19 212.88, 67.12 207.11, 55.55 200.3 C43.98 193.5, 32.83 185.28, 24.38 175.3 C15.92 165.32, 9.07 152.71, 4.82 140.43 C0.58 128.14, -1.98 113.91, -1.08 101.58 C-0.18 89.25, 4.03 77.78, 10.22 66.47 C16.4 55.16, 26.24 42.79, 36.02 33.72 C45.8 24.65, 56.51 17.59, 68.87 12.04 C81.23 6.49, 103.06 1.77, 110.19 0.45 C117.32 -0.87, 111.38 2.5, 111.66 4.12" stroke="#1971c2" stroke-width="1" fill="none"></path></g><g stroke-linecap="round" transform="translate(93.93018423772878 138.89278293651185) rotate(0 82.05674262527936 73.4389112080126)"><path d="M118.47 7.39 C128.64 10.62, 138.94 19.51, 145.97 27.34 C153 35.16, 157.61 45.05, 160.64 54.33 C163.67 63.6, 165.53 73.27, 164.15 82.98 C162.76 92.69, 158.33 103.9, 152.31 112.6 C146.3 121.31, 137.45 129.73, 128.04 135.22 C118.63 140.7, 106.86 143.95, 95.85 145.54 C84.85 147.13, 72.92 147.01, 62.04 144.76 C51.16 142.51, 39.41 138.24, 30.58 132.03 C21.75 125.82, 14.05 116.33, 9.03 107.51 C4.02 98.7, 1.03 88.88, 0.47 79.13 C-0.09 69.37, 1.79 58.56, 5.68 48.97 C9.58 39.37, 16.21 28.71, 23.83 21.56 C31.45 14.41, 41.09 9.54, 51.4 6.05 C61.71 2.56, 72.3 -0.76, 85.68 0.62 C99.06 1.99, 122.2 10.36, 131.68 14.32 C141.15 18.29, 143.49 23.48, 142.52 24.41 M117.11 7.73 C127 10.6, 135 16.67, 142.07 23.69 C149.15 30.71, 155.98 40.09, 159.56 49.84 C163.15 59.58, 164.94 71.81, 163.58 82.14 C162.23 92.48, 157.28 103.26, 151.44 111.84 C145.59 120.43, 137.48 128.14, 128.54 133.66 C119.59 139.18, 108.61 143.11, 97.77 144.97 C86.94 146.83, 74.41 146.88, 63.5 144.8 C52.59 142.72, 41.11 138.46, 32.29 132.51 C23.48 126.56, 16.07 117.66, 10.62 109.1 C5.17 100.53, 0.53 91.08, -0.4 81.12 C-1.34 71.16, 1.5 58.83, 5.01 49.34 C8.52 39.85, 13.46 31.55, 20.66 24.17 C27.87 16.8, 38.1 9.26, 48.21 5.07 C58.33 0.89, 69.83 -1.18, 81.35 -0.93 C92.87 -0.69, 111.47 4.96, 117.33 6.54 C123.18 8.13, 117.21 7.29, 116.48 8.6" stroke="#1971c2" stroke-width="1" fill="none"></path></g><g stroke-linecap="round"><g transform="translate(204.50785418241406 36.49587143535007) rotate(0 86.95536312970395 0.30977550970554546)"><path d="M0.91 -0.72 C56.98 -0.07, 109.38 2.68, 173.15 -0.63 M-0.58 -0.21 C66.36 1.24, 130.16 0.95, 174.49 1.34" stroke="#1e1e1e" stroke-width="1" fill="none"></path></g></g><mask></mask><g transform="translate(389.4051466882023 23.25896189077595) rotate(0 170.4375 30)"><text x="0" y="0" font-family="Virgil, Segoe UI Emoji" font-size="16px" fill="#1e1e1e" text-anchor="start" style="white-space: pre;" direction="ltr" dominant-baseline="text-before-edge">- user input</text><text x="0" y="20" font-family="Virgil, Segoe UI Emoji" font-size="16px" fill="#1e1e1e" text-anchor="start" style="white-space: pre;" direction="ltr" dominant-baseline="text-before-edge">- making it look like chess</text><text x="0" y="40" font-family="Virgil, Segoe UI Emoji" font-size="16px" fill="#1e1e1e" text-anchor="start" style="white-space: pre;" direction="ltr" dominant-baseline="text-before-edge">- initialize a game and pass UI input to it</text></g><g stroke-linecap="round"><g transform="translate(221.0253326975946 110.95619550592895) rotate(0 77.91381567091037 1.1255735383451082)"><path d="M1.83 -1.77 C34.07 0.34, 63.72 1.45, 152.72 2.14 M0.81 0.35 C57.27 1.4, 115.31 2.93, 155.02 4.02" stroke="#1e1e1e" stroke-width="1" fill="none"></path></g></g><mask></mask><g transform="translate(392.49042566933707 110.50570004763577) rotate(0 183.04167175292972 20)"><text x="0" y="0" font-family="Virgil, Segoe UI Emoji" font-size="16px" fill="#1e1e1e" text-anchor="start" style="white-space: pre;" direction="ltr" dominant-baseline="text-before-edge">- pass user input to board</text><text x="0" y="20" font-family="Virgil, Segoe UI Emoji" font-size="16px" fill="#1e1e1e" text-anchor="start" style="white-space: pre;" direction="ltr" dominant-baseline="text-before-edge">- handle bad UI input, checks, game overs etc</text></g><g stroke-linecap="round"><g transform="translate(223.46918159654405 167.91227734817159) rotate(0 77.26160138219882 1.5652082991868355)"><path d="M1.11 -1.42 C59.35 0.51, 119.07 2.37, 153.8 4.55 M-0.76 -0.18 C34.76 2.25, 70.24 3.72, 155.28 4.48" stroke="#1e1e1e" stroke-width="1" fill="none"></path></g></g><mask></mask><g transform="translate(394.9342745682865 167.4617818898784) rotate(0 168.87500000000003 29.999999999999986)"><text x="0" y="0" font-family="Virgil, Segoe UI Emoji" font-size="16px" fill="#1e1e1e" text-anchor="start" style="white-space: pre;" direction="ltr" dominant-baseline="text-before-edge">- make moves for one of the player</text><text x="0" y="20" font-family="Virgil, Segoe UI Emoji" font-size="16px" fill="#1e1e1e" text-anchor="start" style="white-space: pre;" direction="ltr" dominant-baseline="text-before-edge">- signal invalid move</text><text x="0" y="40" font-family="Virgil, Segoe UI Emoji" font-size="16px" fill="#1e1e1e" text-anchor="start" style="white-space: pre;" direction="ltr" dominant-baseline="text-before-edge">- check for checks, mates, stalemates etc</text></g></svg>